<svg width="459" height="526" viewBox="0 0 459 526" fill="none" xmlns="http://www.w3.org/2000/svg">
<rect x="0.584839" y="128.059" width="300" height="148" transform="rotate(-24.9841 0.584839 128.059)" fill="#64BBFA"/>
<rect x="80.0514" y="296.232" width="300" height="230" transform="rotate(-24.9841 80.0514 296.232)" fill="#64BBFA"/>
<rect x="80.3171" y="254.185" width="263" height="38" transform="rotate(-24.9841 80.3171 254.185)" fill="#2360D8"/>
<rect x="193.511" y="497.107" width="66" height="22" transform="rotate(-24.9841 193.511 497.107)" fill="#EA4916"/>
<rect x="379.328" y="410.522" width="66" height="22" transform="rotate(-24.9841 379.328 410.522)" fill="#EA4916"/>
<rect x="32.1674" y="150.853" width="10" height="80" rx="5" transform="rotate(-24.9841 32.1674 150.853)" fill="url(#paint0_linear_87_17)"/>
<rect x="107.349" y="312.196" width="10" height="178" rx="5" transform="rotate(-24.9841 107.349 312.196)" fill="url(#paint1_linear_87_17)"/>
<circle cx="218.075" cy="328.45" r="27.5" transform="rotate(-24.9841 218.075 328.45)" fill="#2D0909"/>
<circle cx="294.215" cy="292.971" r="27.5" transform="rotate(-24.9841 294.215 292.971)" fill="#2D0909"/>
<circle cx="218.075" cy="328.45" r="11.5" transform="rotate(-24.9841 218.075 328.45)" fill="#D9D9D9"/>
<circle cx="294.215" cy="292.971" r="11.5" transform="rotate(-24.9841 294.215 292.971)" fill="#D9D9D9"/>
<path d="M243.061 371.417L249.91 378.656C251.843 380.698 254.184 382.31 256.782 383.386L260.361 384.869L263.487 386.008C267.499 387.469 271.873 387.608 275.969 386.405L282.85 384.384C284.723 383.834 286.505 383.013 288.14 381.946L295.267 377.298C298.663 375.083 301.305 371.888 302.844 368.138L303.233 367.191C303.636 366.207 303.961 365.193 304.203 364.158L305.227 359.78C305.652 357.966 305.821 356.101 305.73 354.239L305.151 342.485" stroke="black" stroke-width="5"/>
<defs>
<linearGradient id="paint0_linear_87_17" x1="37.1674" y1="150.853" x2="37.1674" y2="230.853" gradientUnits="userSpaceOnUse">
<stop stop-color="#EDEDED"/>
<stop offset="1" stop-color="#7C1C1C" stop-opacity="0"/>
</linearGradient>
<linearGradient id="paint1_linear_87_17" x1="112.349" y1="312.196" x2="112.349" y2="490.196" gradientUnits="userSpaceOnUse">
<stop stop-color="#EDEDED"/>
<stop offset="1" stop-color="#EDEDED" stop-opacity="0"/>
</linearGradient>
</defs>
</svg>
